<?xml version="1.0" encoding="utf-8"?>
<!-- Generator: Adobe Illustrator 22.0.1, SVG Export Plug-In . SVG Version: 6.00 Build 0)  -->
<svg version="1.1" id="Layer_1" xmlns="http://www.w3.org/2000/svg" xmlns:xlink="http://www.w3.org/1999/xlink" x="0px" y="0px"
	 viewBox="0 0 360 377.9" style="enable-background:new 0 0 360 377.9;" xml:space="preserve">
<style type="text/css">
	.st0{fill:#3873B9;}
</style>
<g>
	<path class="st0" d="M199.3,166.9l-27.3-0.1c-2.6,0-4.7,2.1-4.7,4.7v4.1l-6.5,0c-2.6,0-4.7,2.1-4.7,4.7v16.9c0,2.6,2.1,4.7,4.7,4.7
		h4.9v8c0,0.3,0.2,0.6,0.5,0.7c0.1,0,0.2,0.1,0.3,0.1c0.2,0,0.4-0.1,0.6-0.3l7.8-8.5l13.3-0.1c2.6,0,4.7-2.1,4.7-4.7v-0.1l4.2,4.6
		c0.2,0.2,0.4,0.3,0.6,0.3c0.1,0,0.2,0,0.3-0.1c0.3-0.1,0.5-0.4,0.5-0.7v-8h0.9c2.6,0,4.7-2.1,4.7-4.7v-16.9
		C204,169.1,201.9,166.9,199.3,166.9L199.3,166.9z M191.2,197.3c0,1.7-1.4,3.1-3.1,3.1l-13.7,0.1c-0.2,0-0.4,0.1-0.6,0.3l-6.6,7.3
		v-6.7c0-0.4-0.4-0.8-0.8-0.8h-5.7c-1.7,0-3.1-1.4-3.1-3.1v-16.9c0-1.7,1.4-3.1,3.1-3.1l7.3,0l20.1,0c1.7,0,3.1,1.4,3.1,3.1V197.3z
		 M202.4,188.6c0,1.7-1.4,3.1-3.1,3.1h-1.7c-0.4,0-0.8,0.4-0.8,0.8v6.7l-4-4.4v-14.4c0-2.6-2.1-4.7-4.7-4.7l-19.3,0v-4.1
		c0-1.7,1.4-3.1,3.1-3.1l27.3,0.1h0c1.7,0,3.1,1.4,3.1,3.1L202.4,188.6L202.4,188.6z M202.4,188.6"/>
</g>
</svg>
